<svg version="1.1" id="Layer_1" xmlns="http://www.w3.org/2000/svg" xmlns:xlink="http://www.w3.org/1999/xlink" x="0px" y="0px"
	 width="100%" viewBox="0 0 460 109" enable-background="new 0 0 460 109" xml:space="preserve">
<path fill="#FDFDFD" opacity="1.000000" stroke="none" 
	d="
M78.000000,1.000000 
	C205.609482,1.000000 333.218964,1.000000 460.914215,1.000000 
	C460.914215,37.259693 460.914215,73.519653 460.914215,109.889809 
	C307.666718,109.889809 154.333374,109.889809 1.000000,109.889809 
	C1.000000,101.930222 1.000000,93.933784 1.440652,85.571465 
	C4.587898,85.134193 7.294492,85.062813 10.443450,85.004387 
	C11.169473,83.991035 11.699531,82.964989 11.700634,81.938377 
	C11.726037,58.302616 11.693877,34.666798 12.053478,10.825975 
	C16.736462,10.583359 21.038332,10.537005 25.340322,10.509686 
	C42.542336,10.400448 59.744389,10.297122 77.296753,10.221045 
	C77.772881,9.831422 77.898689,9.412364 78.141350,8.577139 
	C78.180305,6.442379 78.102402,4.723788 78.101830,2.751785 
	C78.121986,2.331248 78.064812,2.164125 78.100334,1.747026 
	C78.128685,1.331367 78.064339,1.165684 78.000000,1.000000 
M76.065918,36.975178 
	C65.045753,37.018353 54.025585,37.061527 42.170574,37.076363 
	C41.913498,39.434433 41.446388,41.791401 41.434013,44.150757 
	C41.362835,57.723518 41.399345,71.296844 41.399345,85.850464 
	C45.372719,85.151093 48.652668,84.573776 52.073441,83.068893 
	C52.054180,71.059723 52.034916,59.050549 52.848221,46.573372 
	C61.211308,46.573372 69.574394,46.573372 78.945747,46.573372 
	C78.189751,42.904510 77.592201,40.004608 76.065918,36.975178 
M32.004395,83.076073 
	C31.995888,65.030640 31.987383,46.985207 32.846245,28.542671 
	C47.932442,28.542671 63.018639,28.542671 78.072342,28.542671 
	C78.072342,25.008472 78.072342,22.224617 78.072342,19.370308 
	C59.090599,19.370308 40.344009,19.370308 21.141104,19.370308 
	C21.141104,40.914352 21.128016,62.200741 21.218773,83.486687 
	C21.220976,84.003296 22.379328,84.514984 23.874203,85.199486 
	C26.249393,85.142647 28.624584,85.085808 31.601757,85.089134 
	C31.694946,84.728470 31.788136,84.367805 32.004395,83.076073 
M455.649994,63.413048 
	C455.826111,61.911850 456.002197,60.410652 456.361755,58.073463 
	C455.897552,47.991009 451.039062,40.777439 441.502838,37.612965 
	C431.454987,34.278694 422.038818,36.040169 414.495056,43.946125 
	C405.883881,52.970764 405.404144,67.677979 413.131592,77.319008 
	C420.685272,86.743202 435.952301,89.333176 447.143158,82.691109 
	C449.792297,81.118759 452.820465,78.445549 453.409393,75.778587 
	C453.776428,74.116455 449.895477,71.516266 447.888855,69.301651 
	C439.283813,78.616432 433.979919,78.594025 426.969666,75.586594 
	C422.016724,73.461754 418.687683,69.877228 418.263641,63.322182 
	C430.760681,63.322182 442.854736,63.322182 455.649994,63.413048 
M132.186203,61.141251 
	C132.894974,47.472477 123.692390,37.515877 111.779259,36.263096 
	C99.447762,34.966312 87.306992,42.682831 84.389771,54.045708 
	C81.292557,66.109642 85.775787,78.697182 97.972969,84.147339 
	C108.294052,88.759186 125.238960,85.922386 130.619446,74.963707 
	C128.137634,73.196075 125.619339,71.402451 123.160767,69.651367 
	C115.629585,77.268951 109.668564,78.727707 100.844910,74.709213 
	C96.437347,72.701904 94.365303,68.786079 94.078842,63.331394 
	C106.630493,63.331394 118.759735,63.331394 131.623932,63.385658 
	C131.735870,62.927303 131.847794,62.468945 132.186203,61.141251 
M346.864380,85.201897 
	C349.243958,85.129379 351.623566,85.056862 354.580200,85.045532 
	C354.685120,84.704811 354.790039,84.364090 355.075928,83.098488 
	C355.075928,67.840630 355.075928,52.582764 355.075928,37.243546 
	C351.338531,37.243546 348.093597,37.243546 344.681610,37.243546 
	C344.479584,38.997814 344.301453,40.544792 344.106689,42.236198 
	C330.779694,33.772526 319.202606,34.679531 311.088074,44.615326 
	C302.868378,54.679867 303.569153,70.103661 312.674072,79.523293 
	C320.980133,88.116455 333.132599,88.371315 344.119446,80.036423 
	C344.343018,81.405708 344.549072,82.667862 344.687805,84.642021 
	C345.123871,84.756134 345.559967,84.870239 346.864380,85.201897 
M184.428772,41.855080 
	C180.019470,38.221195 175.270279,35.530003 169.268753,37.004906 
	C164.121521,38.269871 159.016708,39.707573 154.059830,41.024593 
	C153.749008,36.352661 152.745834,35.919182 143.107346,37.633446 
	C143.107346,48.855610 143.107346,60.140579 143.107346,71.425545 
	C143.107346,82.669479 143.107346,93.913414 143.107346,105.181847 
	C147.077728,105.181847 150.459290,105.181847 154.216400,105.181847 
	C154.216400,96.616638 154.216400,88.405869 154.216400,79.912125 
	C165.377808,88.673828 179.070221,87.940231 186.471680,78.505379 
	C195.700439,66.741272 195.170990,53.406662 184.428772,41.855080 
M384.130859,31.397869 
	C384.130859,28.955595 384.130859,26.513321 384.130859,24.047335 
	C380.351471,24.047335 377.106842,24.047335 373.487976,24.047335 
	C373.487976,28.395592 373.487976,32.491833 373.487976,37.155640 
	C369.901245,37.155640 366.680725,37.155640 363.518921,37.155640 
	C363.518921,40.495838 363.518921,43.253193 363.518921,46.252384 
	C366.837097,46.399994 369.920990,46.537182 373.433289,46.693428 
	C373.433289,59.575668 373.433289,72.159904 373.433289,84.832748 
	C383.397064,84.832748 392.904846,84.832748 402.374512,84.832748 
	C402.374512,81.671631 402.374512,78.919693 402.374512,75.700035 
	C396.184967,75.700035 390.278717,75.700035 384.335693,75.700035 
	C384.335693,65.785042 384.335693,56.347401 384.335693,46.410290 
	C390.435394,46.410290 396.342194,46.410290 402.330322,46.410290 
	C402.330322,43.009686 402.330322,40.117073 402.330322,36.952843 
	C396.213837,36.952843 390.428711,36.952843 384.346130,36.952843 
	C384.266296,35.247936 384.198578,33.801823 384.130859,31.397869 
M264.588684,70.742584 
	C259.812256,62.725811 260.530090,53.728481 267.084351,49.299183 
	C270.025055,47.311867 274.431793,45.656071 277.640869,46.341728 
	C282.258362,47.328312 286.390106,50.588577 291.753937,53.419220 
	C293.165344,52.436012 295.854767,50.562496 298.519897,48.705902 
	C290.800018,36.710304 277.498077,34.071453 267.316010,37.657948 
	C256.528839,41.457584 250.356781,50.644188 250.831757,62.709949 
	C251.273392,73.928604 258.873596,82.937447 270.214447,85.685097 
	C281.406555,88.396706 292.706573,83.453560 298.768829,72.920029 
	C295.786926,71.295143 292.815338,69.675888 289.910217,68.092834 
	C282.424957,78.126511 273.293182,79.181007 264.588684,70.742584 
M203.944672,46.499992 
	C203.944672,59.386784 203.944672,72.273575 203.944672,84.859016 
	C207.959274,84.859016 211.201157,84.859016 214.455902,84.859016 
	C214.455902,60.749050 214.455902,37.010670 214.455902,13.231978 
	C210.840561,13.231978 207.468643,13.231978 203.944672,13.231978 
	C203.944672,24.216122 203.944672,34.858051 203.944672,46.499992 
M239.821716,58.500198 
	C239.821716,51.404026 239.821716,44.307850 239.821716,37.293037 
	C235.905518,37.293037 232.653290,37.293037 229.318756,37.293037 
	C229.318756,53.325695 229.318756,69.063713 229.318756,85.020233 
	C232.794373,85.020233 236.044739,85.020233 239.821701,85.020233 
	C239.821701,76.388016 239.821701,67.944061 239.821716,58.500198 
M237.724197,25.681465 
	C238.649200,24.760023 240.297211,23.884689 240.359482,22.908228 
	C240.526016,20.296875 240.738403,17.264530 239.607071,15.088638 
	C237.663162,11.349830 233.854004,12.623336 231.075134,14.027358 
	C229.455292,14.845778 227.955948,17.190403 227.642319,19.056705 
	C226.814560,23.982674 230.791824,26.751822 237.724197,25.681465 
z"/>
<path fill="#181818" opacity="1.000000" stroke="none" 
	d="
M78.024498,3.005198 
	C78.102402,4.723788 78.180305,6.442379 77.893898,8.705855 
	C77.335197,9.564363 77.140808,9.877986 76.946426,10.191608 
	C59.744389,10.297122 42.542336,10.400448 25.340322,10.509686 
	C21.038332,10.537005 16.736462,10.583359 11.691807,10.963161 
	C10.631021,13.007066 10.040504,14.708067 10.036079,16.410589 
	C9.976678,39.270744 9.999027,62.131115 10.001085,84.991432 
	C7.294492,85.062813 4.587898,85.134193 1.440652,85.102783 
	C1.000000,57.645771 1.000000,30.291544 1.468636,2.463613 
	C26.968519,2.004147 51.999767,2.018383 77.130981,2.253190 
	C77.434387,2.742087 77.698906,2.919232 78.024498,3.005198 
z"/>
<path fill="#3C3C3C" opacity="1.000000" stroke="none" 
	d="
M77.031013,2.032618 
	C51.999767,2.018383 26.968519,2.004147 1.468636,1.994956 
	C2.323929,1.666667 3.647158,1.045877 4.971890,1.042652 
	C29.002047,0.984153 53.032383,1.000000 77.531342,1.000000 
	C78.064339,1.165684 78.128685,1.331367 77.855713,1.743125 
	C77.518394,1.989198 77.031013,2.032618 77.031013,2.032618 
z"/>
<path fill="#141414" opacity="1.000000" stroke="none" 
	d="
M184.730804,42.060699 
	C195.170990,53.406662 195.700439,66.741272 186.471680,78.505379 
	C179.070221,87.940231 165.377808,88.673828 154.216400,79.912125 
	C154.216400,88.405869 154.216400,96.616638 154.216400,105.181847 
	C150.459290,105.181847 147.077728,105.181847 143.107346,105.181847 
	C143.107346,93.913414 143.107346,82.669479 143.107346,71.425545 
	C143.107346,60.140579 143.107346,48.855610 143.107346,37.633446 
	C152.745834,35.919182 153.749008,36.352661 154.059830,41.024593 
	C159.016708,39.707573 164.121521,38.269871 169.268753,37.004906 
	C175.270279,35.530003 180.019470,38.221195 184.730804,42.060699 
M175.270706,47.921326 
	C168.392059,44.516426 161.515121,45.402496 156.986298,50.277203 
	C152.736389,54.851658 151.645248,63.940948 154.682312,69.469765 
	C156.517029,72.809830 164.121979,77.665771 166.969147,77.250534 
	C173.825806,76.250534 179.474792,73.428452 181.400513,66.202682 
	C183.255600,59.242035 181.792419,53.038242 175.270706,47.921326 
z"/>
<path fill="#171717" opacity="1.000000" stroke="none" 
	d="
M344.755157,83.930008 
	C344.549072,82.667862 344.343018,81.405708 344.119446,80.036423 
	C333.132599,88.371315 320.980133,88.116455 312.674072,79.523293 
	C303.569153,70.103661 302.868378,54.679867 311.088074,44.615326 
	C319.202606,34.679531 330.779694,33.772526 344.106689,42.236198 
	C344.301453,40.544792 344.479584,38.997814 344.681610,37.243546 
	C348.093597,37.243546 351.338531,37.243546 355.075928,37.243546 
	C355.075928,52.582764 355.075928,67.840630 354.778687,83.658936 
	C354.236053,84.420616 354.076630,84.675598 354.003143,84.984344 
	C351.623566,85.056862 349.243958,85.129379 346.292297,84.848175 
	C345.398560,84.306305 345.076843,84.118156 344.755157,83.930008 
M343.380463,53.434029 
	C338.601410,45.977989 330.711304,43.603962 323.709351,47.515251 
	C316.937561,51.297985 314.187622,60.425259 317.533295,68.014389 
	C320.701752,75.201637 328.360901,78.501495 335.760193,75.867279 
	C343.874969,72.978348 347.107300,64.199837 343.380463,53.434029 
z"/>
<path fill="#191919" opacity="1.000000" stroke="none" 
	d="
M130.888977,63.331398 
	C118.759735,63.331394 106.630493,63.331394 94.078842,63.331394 
	C94.365303,68.786079 96.437347,72.701904 100.844910,74.709213 
	C109.668564,78.727707 115.629585,77.268951 123.160767,69.651367 
	C125.619339,71.402451 128.137634,73.196075 130.619446,74.963707 
	C125.238960,85.922386 108.294052,88.759186 97.972969,84.147339 
	C85.775787,78.697182 81.292557,66.109642 84.389771,54.045708 
	C87.306992,42.682831 99.447762,34.966312 111.779259,36.263096 
	C123.692390,37.515877 132.894974,47.472477 131.822205,61.726776 
	C131.268463,62.652000 131.078720,62.991699 130.888977,63.331398 
M94.951057,54.124943 
	C95.292229,54.709213 95.627632,55.799644 95.975426,55.803616 
	C104.318970,55.898861 112.663857,55.877754 121.118103,55.877754 
	C119.927483,50.053268 116.134468,45.904827 111.715126,45.140026 
	C104.814049,43.945744 98.821594,46.916386 94.951057,54.124943 
z"/>
<path fill="#191919" opacity="1.000000" stroke="none" 
	d="
M454.948792,63.322182 
	C442.854736,63.322182 430.760681,63.322182 418.263641,63.322182 
	C418.687683,69.877228 422.016724,73.461754 426.969666,75.586594 
	C433.979919,78.594025 439.283813,78.616432 447.888855,69.301651 
	C449.895477,71.516266 453.776428,74.116455 453.409393,75.778587 
	C452.820465,78.445549 449.792297,81.118759 447.143158,82.691109 
	C435.952301,89.333176 420.685272,86.743202 413.131592,77.319008 
	C405.404144,67.677979 405.883881,52.970764 414.495056,43.946125 
	C422.038818,36.040169 431.454987,34.278694 441.502838,37.612965 
	C451.039062,40.777439 455.897552,47.991009 455.950439,58.730392 
	C455.342316,60.698940 455.145569,62.010563 454.948792,63.322182 
M426.619934,55.903515 
	C432.887268,55.903515 439.154602,55.903515 445.478455,55.903515 
	C444.126984,48.822159 439.552338,45.032722 432.694916,45.051567 
	C425.657349,45.070904 420.452087,49.172646 419.254456,55.903515 
	C421.423981,55.903515 423.542725,55.903515 426.619934,55.903515 
z"/>
<path fill="#181818" opacity="1.000000" stroke="none" 
	d="
M384.130859,31.876789 
	C384.198578,33.801823 384.266296,35.247936 384.346130,36.952843 
	C390.428711,36.952843 396.213837,36.952843 402.330322,36.952843 
	C402.330322,40.117073 402.330322,43.009686 402.330322,46.410290 
	C396.342194,46.410290 390.435394,46.410290 384.335693,46.410290 
	C384.335693,56.347401 384.335693,65.785042 384.335693,75.700035 
	C390.278717,75.700035 396.184967,75.700035 402.374512,75.700035 
	C402.374512,78.919693 402.374512,81.671631 402.374512,84.832748 
	C392.904846,84.832748 383.397064,84.832748 373.433289,84.832748 
	C373.433289,72.159904 373.433289,59.575668 373.433289,46.693428 
	C369.920990,46.537182 366.837097,46.399994 363.518921,46.252384 
	C363.518921,43.253193 363.518921,40.495838 363.518921,37.155640 
	C366.680725,37.155640 369.901245,37.155640 373.487976,37.155640 
	C373.487976,32.491833 373.487976,28.395592 373.487976,24.047335 
	C377.106842,24.047335 380.351471,24.047335 384.130859,24.047335 
	C384.130859,26.513321 384.130859,28.955595 384.130859,31.876789 
z"/>
<path fill="#171717" opacity="1.000000" stroke="none" 
	d="
M264.823425,71.041977 
	C273.293182,79.181007 282.424957,78.126511 289.910217,68.092834 
	C292.815338,69.675888 295.786926,71.295143 298.768829,72.920029 
	C292.706573,83.453560 281.406555,88.396706 270.214447,85.685097 
	C258.873596,82.937447 251.273392,73.928604 250.831757,62.709949 
	C250.356781,50.644188 256.528839,41.457584 267.316010,37.657948 
	C277.498077,34.071453 290.800018,36.710304 298.519897,48.705902 
	C295.854767,50.562496 293.165344,52.436012 291.753937,53.419220 
	C286.390106,50.588577 282.258362,47.328312 277.640869,46.341728 
	C274.431793,45.656071 270.025055,47.311867 267.084351,49.299183 
	C260.530090,53.728481 259.812256,62.725811 264.823425,71.041977 
z"/>
<path fill="#141414" opacity="1.000000" stroke="none" 
	d="
M30.999775,85.028961 
	C28.624584,85.085808 26.249393,85.142647 23.428976,84.643738 
	C22.985088,64.774612 23.059801,45.460720 22.923035,26.148321 
	C22.897097,22.485628 23.552711,20.812283 27.799177,20.886997 
	C42.612629,21.147633 57.433495,20.976648 72.251495,20.999819 
	C74.490044,21.003321 77.149048,20.349012 77.029076,24.186155 
	C76.918343,27.727833 74.404823,26.990063 72.385307,26.997520 
	C60.564335,27.041195 48.742115,26.944553 36.923153,27.104637 
	C35.267082,27.127068 33.626583,28.299608 31.978878,28.939772 
	C31.987383,46.985207 31.995888,65.030640 31.749250,83.667953 
	C31.252499,84.466835 31.087721,84.723213 30.999775,85.028961 
z"/>
<path fill="#181818" opacity="1.000000" stroke="none" 
	d="
M203.944672,45.999989 
	C203.944672,34.858051 203.944672,24.216122 203.944672,13.231978 
	C207.468643,13.231978 210.840561,13.231978 214.455902,13.231978 
	C214.455902,37.010670 214.455902,60.749050 214.455902,84.859016 
	C211.201157,84.859016 207.959274,84.859016 203.944672,84.859016 
	C203.944672,72.273575 203.944672,59.386784 203.944672,45.999989 
z"/>
<path fill="#141414" opacity="1.000000" stroke="none" 
	d="
M52.015656,47.041374 
	C52.034916,59.050549 52.054180,71.059723 51.551605,83.543777 
	C41.865578,83.926834 43.026211,85.050774 42.993111,76.099236 
	C42.945049,63.101250 42.996441,50.102898 43.005417,37.104702 
	C54.025585,37.061527 65.045753,37.018353 76.541824,37.483238 
	C77.016388,45.018608 77.016388,45.019264 70.191391,45.021290 
	C65.399765,45.022709 60.601295,44.881699 55.821018,45.114758 
	C54.524334,45.177975 53.282604,46.368340 52.015656,47.041374 
z"/>
<path fill="#1C1C1C" opacity="1.000000" stroke="none" 
	d="
M239.821716,59.000153 
	C239.821701,67.944061 239.821701,76.388016 239.821701,85.020233 
	C236.044739,85.020233 232.794373,85.020233 229.318756,85.020233 
	C229.318756,69.063713 229.318756,53.325695 229.318756,37.293037 
	C232.653290,37.293037 235.905518,37.293037 239.821716,37.293037 
	C239.821716,44.307850 239.821716,51.404026 239.821716,59.000153 
z"/>
<path fill="#1C1C1C" opacity="1.000000" stroke="none" 
	d="
M32.412560,28.741222 
	C33.626583,28.299608 35.267082,27.127068 36.923153,27.104637 
	C48.742115,26.944553 60.564335,27.041195 72.385307,26.997520 
	C74.404823,26.990063 76.918343,27.727833 77.029076,24.186155 
	C77.149048,20.349012 74.490044,21.003321 72.251495,20.999819 
	C57.433495,20.976648 42.612629,21.147633 27.799177,20.886997 
	C23.552711,20.812283 22.897097,22.485628 22.923035,26.148321 
	C23.059801,45.460720 22.985088,64.774612 22.991095,84.558479 
	C22.379328,84.514984 21.220976,84.003296 21.218773,83.486687 
	C21.128016,62.200741 21.141104,40.914352 21.141104,19.370308 
	C40.344009,19.370308 59.090599,19.370308 78.072342,19.370308 
	C78.072342,22.224617 78.072342,25.008472 78.072342,28.542671 
	C63.018639,28.542671 47.932442,28.542671 32.412560,28.741222 
z"/>
<path fill="#030303" opacity="1.000000" stroke="none" 
	d="
M10.443450,85.004387 
	C9.999027,62.131115 9.976678,39.270744 10.036079,16.410589 
	C10.040504,14.708067 10.631021,13.007066 11.310749,11.168173 
	C11.693877,34.666798 11.726037,58.302616 11.700634,81.938377 
	C11.699531,82.964989 11.169473,83.991035 10.443450,85.004387 
z"/>
<path fill="#151515" opacity="1.000000" stroke="none" 
	d="
M237.330933,25.822399 
	C230.791824,26.751822 226.814560,23.982674 227.642319,19.056705 
	C227.955948,17.190403 229.455292,14.845778 231.075134,14.027358 
	C233.854004,12.623336 237.663162,11.349830 239.607071,15.088638 
	C240.738403,17.264530 240.526016,20.296875 240.359482,22.908228 
	C240.297211,23.884689 238.649200,24.760023 237.330933,25.822399 
z"/>
<path fill="#1D1D1D" opacity="1.000000" stroke="none" 
	d="
M42.587997,37.090530 
	C42.996441,50.102898 42.945049,63.101250 42.993111,76.099236 
	C43.026211,85.050774 41.865578,83.926834 51.481194,84.007553 
	C48.652668,84.573776 45.372719,85.151093 41.399345,85.850464 
	C41.399345,71.296844 41.362835,57.723518 41.434013,44.150757 
	C41.446388,41.791401 41.913498,39.434433 42.587997,37.090530 
z"/>
<path fill="#1D1D1D" opacity="1.000000" stroke="none" 
	d="
M52.431938,46.807373 
	C53.282604,46.368340 54.524334,45.177975 55.821018,45.114758 
	C60.601295,44.881699 65.399765,45.022709 70.191391,45.021290 
	C77.016388,45.019264 77.016388,45.018608 77.006195,37.548004 
	C77.592201,40.004608 78.189751,42.904510 78.945747,46.573372 
	C69.574394,46.573372 61.211308,46.573372 52.431938,46.807373 
z"/>
<path fill="#030303" opacity="1.000000" stroke="none" 
	d="
M455.299408,63.367615 
	C455.145569,62.010563 455.342316,60.698940 455.858704,59.148384 
	C456.002197,60.410652 455.826111,61.911850 455.299408,63.367615 
z"/>
<path fill="#000000" opacity="1.000000" stroke="none" 
	d="
M131.256454,63.358528 
	C131.078720,62.991699 131.268463,62.652000 131.708969,62.161446 
	C131.847794,62.468945 131.735870,62.927303 131.256454,63.358528 
z"/>
<path fill="#000000" opacity="1.000000" stroke="none" 
	d="
M77.296753,10.221044 
	C77.140808,9.877986 77.335197,9.564363 77.777039,9.122025 
	C77.898689,9.412364 77.772881,9.831422 77.296753,10.221044 
z"/>
<path fill="#000000" opacity="1.000000" stroke="none" 
	d="
M77.130981,2.253190 
	C77.031013,2.032618 77.518394,1.989198 77.763016,1.993100 
	C78.064812,2.164125 78.121986,2.331248 78.101830,2.751785 
	C77.698906,2.919232 77.434387,2.742087 77.130981,2.253190 
z"/>
<path fill="#1C1C1C" opacity="1.000000" stroke="none" 
	d="
M31.300766,85.059052 
	C31.087721,84.723213 31.252499,84.466835 31.687716,84.133492 
	C31.788136,84.367805 31.694946,84.728470 31.300766,85.059052 
z"/>
<path fill="#000000" opacity="1.000000" stroke="none" 
	d="
M344.721497,84.286011 
	C345.076843,84.118156 345.398560,84.306305 345.858154,84.739395 
	C345.559967,84.870239 345.123871,84.756134 344.721497,84.286011 
z"/>
<path fill="#000000" opacity="1.000000" stroke="none" 
	d="
M354.291687,85.014938 
	C354.076630,84.675598 354.236053,84.420616 354.688171,84.121368 
	C354.790039,84.364090 354.685120,84.704811 354.291687,85.014938 
z"/>
<path fill="#FBFBFB" opacity="1.000000" stroke="none" 
	d="
M175.602966,48.113571 
	C181.792419,53.038242 183.255600,59.242035 181.400513,66.202682 
	C179.474792,73.428452 173.825806,76.250534 166.969147,77.250534 
	C164.121979,77.665771 156.517029,72.809830 154.682312,69.469765 
	C151.645248,63.940948 152.736389,54.851658 156.986298,50.277203 
	C161.515121,45.402496 168.392059,44.516426 175.602966,48.113571 
z"/>
<path fill="#FBFBFB" opacity="1.000000" stroke="none" 
	d="
M343.572693,53.780769 
	C347.107300,64.199837 343.874969,72.978348 335.760193,75.867279 
	C328.360901,78.501495 320.701752,75.201637 317.533295,68.014389 
	C314.187622,60.425259 316.937561,51.297985 323.709351,47.515251 
	C330.711304,43.603962 338.601410,45.977989 343.572693,53.780769 
z"/>
<path fill="#F7F7F7" opacity="1.000000" stroke="none" 
	d="
M95.072556,53.727478 
	C98.821594,46.916386 104.814049,43.945744 111.715126,45.140026 
	C116.134468,45.904827 119.927483,50.053268 121.118103,55.877754 
	C112.663857,55.877754 104.318970,55.898861 95.975426,55.803616 
	C95.627632,55.799644 95.292229,54.709213 95.072556,53.727478 
z"/>
<path fill="#F6F6F6" opacity="1.000000" stroke="none" 
	d="
M426.140686,55.903515 
	C423.542725,55.903515 421.423981,55.903515 419.254456,55.903515 
	C420.452087,49.172646 425.657349,45.070904 432.694916,45.051567 
	C439.552338,45.032722 444.126984,48.822159 445.478455,55.903515 
	C439.154602,55.903515 432.887268,55.903515 426.140686,55.903515 
z"/>
</svg>